<svg xmlns="http://www.w3.org/2000/svg" xmlns:xlink="http://www.w3.org/1999/xlink" version="1.1" x="0px" y="0px" viewBox="0 0 128 128" enable-background="new 0 0 128 128" xml:space="preserve">
    <g stroke="none" stroke-opacity="0" >
        <rect x="55.6" y="1" fill="#FF5252" width="16.7" height="16.5"/>
        <path
            fill="#00796B"
            d="M80.6,45c-4.9-6.5-7.8-14.3-8.2-22.4H55.6c-0.4,8.1-3.3,15.9-8.2,22.4c-5.4,7.1-8.3,15.7-8.3,24.5v50.8   c0,3.7,3,6.7,6.7,6.7h36.5c3.7,0,6.7-3,6.7-6.7v-7.1H61.6c-1.4,0-2.5-1.1-2.5-2.5V73.5c0-1.4,1.1-2.5,2.5-2.5h27.3v-1.5   C88.9,60.7,86,52.1,80.6,45z"/>
    </g>
</svg>
